HIERARCHY
ROOT root
{
	OFFSET 0.000000 0.000000 0.000000
	CHANNELS 6 Xposition Yposition Zposition Zrotation Yrotation Xrotation
	JOINT lhip
	{
		OFFSET 0.058581 -0.082280 -0.017664
		CHANNELS 3 Zrotation Yrotation Xrotation
		JOINT lknee
		{
			OFFSET 0.043451 -0.386469 0.008037
			CHANNELS 3 Zrotation Yrotation Xrotation
			JOINT lankle
			{
				OFFSET -0.014790 -0.426874 -0.037428
				CHANNELS 3 Zrotation Yrotation Xrotation
				JOINT ltoe
				{
					OFFSET 0.041054 -0.060286 0.122042
					CHANNELS 3 Zrotation Yrotation Xrotation
					End Site
					{
						OFFSET 0.000000 0.000000 0.000000
					}
				}
			}
		}
	}
	JOINT rhip
	{
		OFFSET -0.060310 -0.090513 -0.013543
		CHANNELS 3 Zrotation Yrotation Xrotation
		JOINT rknee
		{
			OFFSET -0.043257 -0.383688 -0.004843
			CHANNELS 3 Zrotation Yrotation Xrotation
			JOINT rankle
			{
				OFFSET 0.019056 -0.420046 -0.034562
				CHANNELS 3 Zrotation Yrotation Xrotation
				JOINT rtoe
				{
					OFFSET -0.034840 -0.062106 0.130323
					CHANNELS 3 Zrotation Yrotation Xrotation
					End Site
					{
						OFFSET 0.000000 0.000000 0.000000
					}
				}
			}
		}
	}
	JOINT lowerback
	{
		OFFSET 0.004439 0.124404 -0.038385
		CHANNELS 3 Zrotation Yrotation Xrotation
		JOINT upperback
		{
			OFFSET 0.004488 0.137956 0.026820
			CHANNELS 3 Zrotation Yrotation Xrotation
			JOINT chest
			{
				OFFSET -0.002265 0.056032 0.002855
				CHANNELS 3 Zrotation Yrotation Xrotation
				JOINT lowerneck
				{
					OFFSET -0.013390 0.211636 -0.033468
					CHANNELS 3 Zrotation Yrotation Xrotation
					JOINT upperneck
					{
						OFFSET 0.010113 0.088937 0.050410
						CHANNELS 3 Zrotation Yrotation Xrotation
						End Site
						{
							OFFSET 0.000000 0.000000 0.000000
						}
					}
				}
				JOINT lclavicle
				{
					OFFSET 0.071702 0.114000 -0.018898
					CHANNELS 3 Zrotation Yrotation Xrotation
					JOINT lshoulder
					{
						OFFSET 0.122921 0.045205 -0.019046
						CHANNELS 3 Zrotation Yrotation Xrotation
						JOINT lelbow
						{
							OFFSET 0.255332 -0.015649 -0.022946
							CHANNELS 3 Zrotation Yrotation Xrotation
							JOINT lwrist
							{
								OFFSET 0.265709 0.012698 -0.007375
								CHANNELS 3 Zrotation Yrotation Xrotation
								End Site
								{
									OFFSET 0.000000 0.000000 0.000000
								}
							}
						}
					}
				}
				JOINT rclavicle
				{
					OFFSET -0.082954 0.112472 -0.023707
					CHANNELS 3 Zrotation Yrotation Xrotation
					JOINT rshoulder
					{
						OFFSET -0.113228 0.046853 -0.008472
						CHANNELS 3 Zrotation Yrotation Xrotation
						JOINT relbow
						{
							OFFSET -0.260127 -0.014369 -0.031269
							CHANNELS 3 Zrotation Yrotation Xrotation
							JOINT rwrist
							{
								OFFSET -0.269108 0.006794 -0.006027
								CHANNELS 3 Zrotation Yrotation Xrotation
								End Site
								{
									OFFSET 0.000000 0.000000 0.000000
								}
							}
						}
					}
				}
			}
		}
	}
}
MOTION
Frames: 16
Frame Time: 0.033333
-0.657521 1.138719 1.015458 -10.873310 -6.842256 87.986468 7.744056 1.316726 -6.002424 -3.431727 -3.083075 9.935538 -2.299929 9.747951 -3.064423 0.000000 -0.000000 0.000000 -4.773348 -6.879604 3.668707 2.304876 -6.555148 8.615644 -0.668686 -11.701423 -14.109744 0.000000 -0.000000 0.000000 0.714319 2.940492 9.230334 -0.918140 -2.024230 3.587783 -0.673432 0.609373 -2.140967 -1.935591 14.701278 -4.691332 -2.629188 13.233661 1.668570 -27.113740 11.115352 -1.019379 -55.272797 7.060897 9.877291 2.909847 -22.409794 10.458349 -8.362575 -12.033315 -1.535469 27.475666 -2.472719 1.469333 48.958066 -2.135953 11.901114 -6.174366 22.584700 1.459620 5.161908 7.395799 3.045023 
-0.652389 1.133437 1.015213 -11.481937 -7.057345 88.269825 8.519047 2.757280 -6.179269 -3.837529 -2.773651 8.448427 -2.250269 10.204433 -0.398311 0.000000 -0.000000 0.000000 -5.688224 -6.738906 3.530583 2.759053 -6.210378 8.787579 -0.277469 -11.794306 -14.180785 0.000000 -0.000000 0.000000 0.327574 3.010684 8.442025 -0.861065 -2.244216 4.524580 -0.596358 0.620997 -1.940585 -1.896534 14.715156 -5.445835 -2.937649 13.076271 1.649434 -27.001805 11.946332 -0.883496 -54.736637 7.937285 10.299256 3.002144 -20.954312 9.156965 -9.703049 -12.046290 -0.148058 27.471918 -2.721733 1.341080 48.212934 -2.529084 11.394538 -6.121071 21.036959 1.080075 5.573406 7.009449 4.598340 
-0.645389 1.129161 1.015897 -11.148407 -7.302278 88.931080 8.617428 5.353117 -7.754403 -3.990050 -3.991781 8.213692 -3.506919 9.443705 1.815241 0.000000 -0.000000 0.000000 -6.557203 -6.938539 2.559606 2.934652 -6.817434 9.460642 -0.088483 -11.451984 -14.397178 0.000000 -0.000000 0.000000 -0.176454 1.906583 8.069444 -0.809674 -2.013746 4.294876 -0.633007 0.858680 -1.999730 -1.733946 14.006290 -5.670137 -2.776734 12.202405 1.068962 -26.761143 12.554228 -0.294820 -53.804730 8.810117 10.558797 2.998730 -19.761954 9.021365 -9.479766 -11.726642 0.262214 27.587125 -3.262531 1.047703 47.442698 -3.503996 11.006586 -6.062595 19.336309 0.525006 4.953900 7.049694 4.764212 
-0.640744 1.119593 1.014935 -12.477669 -7.035558 88.806815 9.859214 3.532310 -6.591207 -2.091172 -3.681337 7.132105 -4.497819 8.461763 3.178814 0.000000 -0.000000 0.000000 -6.521329 -7.066586 3.186551 2.342899 -5.330655 9.271398 0.284623 -11.581041 -14.329760 0.000000 -0.000000 0.000000 -0.456307 3.224972 7.222914 -0.597417 -2.263099 5.614583 -0.496491 0.536035 -1.668501 -1.606814 14.841229 -5.445652 -2.822914 11.339175 0.071874 -26.288219 13.235341 -0.628301 -53.254320 9.595723 9.837930 3.772651 -17.509708 8.161682 -11.189409 -11.849644 1.540713 27.539447 -3.737980 0.891441 46.741124 -4.187454 10.382558 -6.515801 17.604524 -0.403214 5.706878 6.946719 5.956873 
-0.635855 1.114204 1.014341 -12.371420 -6.603943 88.508884 10.490890 3.781446 -6.357649 -2.413206 -3.941292 7.563433 -5.021057 8.848802 2.688626 0.000000 -0.000000 0.000000 -6.356665 -6.625418 3.607215 2.153423 -5.537041 9.445259 0.572563 -11.920688 -14.498603 0.000000 -0.000000 0.000000 0.078728 2.839175 7.844222 -0.770081 -2.212645 5.227314 -0.582660 0.441668 -1.581919 -1.610702 14.861874 -5.509344 -2.751843 11.784394 0.082681 -26.077238 13.578894 -0.431789 -52.782219 9.965083 9.184311 4.376845 -16.611671 7.887254 -11.089249 -12.186080 1.144306 27.256379 -4.090450 0.981005 46.544851 -4.742116 10.075331 -6.732579 16.707467 -0.441597 5.562680 7.037293 5.654425 
-0.628517 1.106493 1.014133 -12.635880 -6.460468 88.511482 10.841759 3.869176 -6.387034 -3.510117 -4.550505 8.625544 -5.159593 9.395245 1.911011 0.000000 -0.000000 0.000000 -6.667480 -6.640636 3.810154 1.827896 -5.416522 9.626474 0.709225 -11.972814 -14.951977 0.000000 -0.000000 0.000000 -0.165844 2.766345 7.671165 -0.693595 -2.366694 5.324051 -0.721306 0.309806 -1.696171 -1.394532 14.428849 -5.439174 -2.332082 11.779607 0.276018 -25.840139 13.955144 -0.242234 -51.899941 10.583774 8.981474 4.789201 -15.971120 6.907785 -10.066492 -11.782403 1.470379 27.584240 -4.397775 0.696287 45.702963 -5.425378 9.812823 -6.715549 15.269602 -0.320709 5.247584 6.769868 6.672785 
-0.620881 1.097759 1.013803 -12.999847 -6.376442 88.374999 11.013791 3.416454 -5.892760 -5.118774 -6.093101 10.590782 -5.885396 8.367733 -0.548410 0.000000 -0.000000 0.000000 -7.267492 -6.676845 4.186296 1.719500 -5.140104 9.928482 0.984609 -11.796294 -15.172613 0.000000 -0.000000 0.000000 -0.477359 2.833139 7.462472 -0.739544 -2.307846 5.565299 -0.718771 0.292730 -1.651214 -1.340778 14.409352 -5.652438 -2.238427 11.519297 0.605736 -25.964945 13.803095 0.316334 -50.723908 10.633971 8.427176 4.770858 -15.944195 7.391316 -9.269294 -11.870658 1.528332 27.700486 -4.499185 1.061672 45.394912 -5.825920 9.101883 -6.865173 14.276758 -0.470309 4.946251 6.728581 6.774221 
-0.611007 1.088853 1.013648 -13.514133 -6.260642 88.425060 10.409230 3.252911 -5.769480 -5.845134 -5.563468 13.046350 -5.241225 8.652843 -2.900430 0.000000 -0.000000 0.000000 -8.015756 -6.617557 4.009176 1.624474 -4.910309 10.604945 1.795684 -11.473660 -15.073369 0.000000 -0.000000 0.000000 -0.800359 2.912328 7.299038 -0.664337 -2.340781 5.662371 -0.824637 0.320956 -1.884632 -1.098338 14.380984 -5.513931 -2.279256 11.453339 0.389779 -26.030568 13.785345 0.271144 -49.660454 10.812024 8.651087 4.407201 -16.886413 7.608455 -9.394891 -11.430737 2.323399 27.945547 -4.663570 0.993270 45.020116 -6.181741 8.991195 -7.364577 13.787563 -0.782134 4.989993 6.420141 7.435672 
-0.601050 1.079687 1.012989 -14.305555 -5.801729 88.535629 9.917493 3.317247 -5.124280 -5.393731 -4.140906 13.118381 -4.383868 9.511366 -4.418592 0.000000 -0.000000 0.000000 -8.136384 -6.588425 4.273751 1.232895 -4.302521 10.406014 1.704816 -11.335902 -14.720802 0.000000 -0.000000 0.000000 -0.620083 3.199851 6.929681 -0.739784 -2.321787 5.571429 -0.999252 0.407155 -1.831147 -0.927294 14.488817 -5.046387 -2.429967 11.807304 0.292228 -25.986348 13.496655 0.165894 -49.069139 10.629141 9.005715 4.353596 -17.845903 7.696771 -9.322813 -11.473106 2.631077 27.971042 -4.793858 0.993663 45.110269 -6.389761 9.003737 -7.489429 13.857922 -1.036258 4.779543 6.202067 7.545342 
-0.586506 1.069030 1.012172 -14.959987 -5.146777 89.140909 9.137866 4.388457 -4.959525 -4.923162 -2.888438 12.193983 -2.763038 10.646913 -5.763949 0.000000 -0.000000 0.000000 -8.231507 -6.602155 3.932634 0.587919 -3.876653 10.316604 2.828180 -11.036152 -14.082138 0.000000 -0.000000 0.000000 -0.647206 2.999289 6.175056 -0.659278 -2.229422 5.231748 -1.072306 0.486775 -2.004748 -0.952449 14.258508 -4.734034 -2.259870 11.967019 0.313847 -25.714246 13.527866 -0.355608 -49.502131 9.874142 9.215650 4.802015 -19.346721 6.356570 -8.773304 -11.140292 2.325203 27.700030 -4.688551 0.946340 45.651253 -6.389644 9.553288 -7.459270 13.847270 -1.315070 4.957456 6.011054 7.458633 
-0.574109 1.060862 1.011525 -15.352162 -4.709619 89.436638 8.392483 4.560339 -4.303141 -4.639078 -1.999754 10.996891 -1.694720 11.435882 -7.227643 0.000000 -0.000000 0.000000 -8.673444 -6.618094 3.572015 0.267686 -4.050257 10.771663 3.561917 -10.551257 -13.819150 0.000000 -0.000000 0.000000 -0.722990 2.900803 5.867971 -0.726650 -2.101238 5.041835 -1.188406 0.554198 -2.167130 -0.778229 14.467581 -4.618442 -2.173752 12.132829 0.602392 -25.374097 13.057631 -0.218538 -49.910535 8.921983 9.212494 4.690993 -21.806657 5.444173 -8.132771 -11.441252 1.177484 27.731298 -4.417460 1.108726 46.333933 -6.344086 9.971243 -7.373339 14.632760 -1.749249 4.682851 6.260417 7.262758 
-0.560216 1.054903 1.011359 -15.444136 -4.608295 90.243165 7.284767 4.489896 -4.547360 -4.294780 -1.459461 10.006809 -0.692660 12.017185 -8.299058 0.000000 -0.000000 0.000000 -9.337502 -6.934903 2.416971 -0.163423 -3.620071 11.441637 4.120236 -10.375325 -13.401167 0.000000 -0.000000 0.000000 -1.185853 2.887764 5.230874 -0.771482 -2.322439 4.781110 -1.240505 0.342185 -2.347641 -0.827383 14.320928 -4.457959 -2.123512 12.255942 0.382559 -25.340528 12.797987 -0.801922 -50.705065 7.594029 9.380399 5.645308 -23.620051 3.879850 -7.523787 -11.980782 1.318925 27.552780 -4.192410 0.829757 47.271412 -5.818679 10.423186 -6.983986 15.132268 -1.684187 4.902688 6.636999 6.858810 
-0.547603 1.049385 1.012068 -15.117428 -4.019170 90.585398 7.002181 4.202192 -4.572935 -4.070606 -1.794098 9.507954 -0.032185 11.727788 -8.935393 0.000000 -0.000000 0.000000 -9.491764 -6.914011 1.676278 -0.358180 -3.520908 12.450645 4.518923 -10.237271 -12.811967 0.000000 -0.000000 0.000000 -1.438256 2.897008 5.112307 -0.589354 -2.479895 4.781360 -1.100464 0.205753 -2.568058 -0.724593 14.225131 -4.738837 -2.346545 12.382456 0.691715 -25.247175 12.125270 -1.196752 -51.593413 6.292337 9.796135 5.909437 -27.447926 3.273819 -6.292474 -12.165488 0.383877 27.802101 -3.986419 1.116641 48.255352 -5.561984 10.854998 -7.442132 17.258360 -2.047305 4.889426 6.522546 6.173470 
-0.534407 1.045236 1.013787 -14.506768 -3.938429 90.904368 6.329378 4.041753 -5.177545 -4.247491 -1.753739 9.621667 0.449190 11.229329 -8.961105 0.000000 -0.000000 0.000000 -10.105455 -7.223775 0.804609 -0.801566 -3.727548 13.599594 4.985306 -9.907015 -12.118454 0.000000 -0.000000 0.000000 -2.248754 3.023699 5.177861 -0.547695 -2.747674 4.611565 -0.903233 -0.051320 -2.730653 -0.607638 14.425822 -4.473473 -2.266873 12.237607 0.496766 -25.402606 11.404751 -2.035783 -52.143971 4.741973 10.352615 6.316579 -31.182440 2.841477 -5.335970 -12.469536 -0.338655 28.318793 -3.887235 0.732044 49.102127 -5.181425 11.378941 -7.538214 18.839609 -1.953610 4.969397 6.638696 6.067866 
-0.522083 1.040963 1.016366 -13.691628 -3.568067 90.953392 5.907620 3.470575 -5.200986 -4.283531 -1.684287 9.204531 0.811464 10.951858 -9.007075 0.000000 -0.000000 0.000000 -10.390531 -7.080313 0.419386 -1.081728 -4.435709 14.419129 5.636271 -9.933990 -11.237210 0.000000 -0.000000 0.000000 -2.443086 2.872026 5.800627 -0.702425 -2.857603 4.072608 -0.807749 -0.233751 -2.984717 -0.731292 14.121661 -4.169703 -2.019916 12.028969 0.749346 -25.362539 10.472517 -2.021629 -52.636769 3.100776 10.767704 6.625766 -35.574309 2.321224 -4.038411 -13.081456 -1.752000 28.426975 -3.308090 1.257752 50.262277 -4.999215 12.057450 -7.177713 20.994006 -1.904227 4.508887 6.918308 4.637161 
-0.508811 1.036642 1.018697 -12.855762 -2.845113 91.044944 5.647294 3.061598 -5.368154 -4.178166 -2.077664 8.784530 1.269362 10.871875 -9.239001 0.000000 -0.000000 0.000000 -10.401671 -6.950474 -0.338299 -1.277681 -4.954714 15.677311 6.244975 -9.890259 -10.018140 0.000000 -0.000000 0.000000 -1.841345 2.749546 6.567131 -0.835778 -2.994163 3.347472 -1.055182 -0.390846 -3.158023 -1.057491 13.564225 -4.182662 -1.558808 11.835990 1.014269 -24.932162 9.554923 -1.702023 -53.750368 1.459453 11.172126 7.321345 -40.384786 2.309164 -2.621612 -13.431999 -2.922863 28.400836 -2.771411 1.630996 51.392510 -5.113909 12.693837 -7.205316 23.503810 -0.785113 4.069101 7.205718 3.756470 
